<?xml version="1.0" encoding="UTF-8"?>
<!DOCTYPE svg PUBLIC "-//W3C//DTD SVG 1.1//EN" "http://www.w3.org/Graphics/SVG/1.1/DTD/svg11.dtd">
<!-- Creator: CorelDRAW -->
<svg xmlns="http://www.w3.org/2000/svg" xml:space="preserve" width="6.82666in" height="6.82666in" style="shape-rendering:geometricPrecision; text-rendering:geometricPrecision; image-rendering:optimizeQuality; fill-rule:evenodd; clip-rule:evenodd"
viewBox="0 0 6.82666 6.82666"
 xmlns:xlink="http://www.w3.org/1999/xlink">
 <defs>
  <style type="text/css">
   <![CDATA[
    .fil0 {fill:none}
    .fil2 {fill:#eeeeee;fill-rule:nonzero}
    .fil1 {fill:#eeeeee;fill-rule:nonzero}
   ]]>
  </style>
 </defs>
 <g id="Layer_x0020_1">
  <metadata id="CorelCorpID_0Corel-Layer"/>
  <g id="_370262496">
   <rect id="_370262520" class="fil0" width="6.82666" height="6.82666"/>
   <rect id="_370262664" class="fil0" x="0.853331" y="0.853331" width="5.12" height="5.12"/>
  </g>
  <polygon class="fil1" points="1.35909,4.45242 2.35708,5.44087 2.20458,5.5892 1.20659,4.60075 "/>
  <polygon class="fil1" points="2.20458,5.5892 0.987492,5.91822 0.803618,5.96802 0.857909,5.7853 1.20659,4.60075 1.37936,4.76647 1.11637,5.66258 2.05306,5.40839 "/>
  <polygon class="fil2" points="4.79764,1.18783 5.67962,2.09152 5.75379,2.16752 5.67754,2.24194 2.44974,5.39222 2.2993,5.24178 5.45295,2.16386 4.71956,1.41242 1.55677,4.49925 1.40632,4.3488 4.64722,1.18575 4.72321,1.11158 "/>
  <path class="fil2" d="M4.72344 1.11409c0.145244,-0.141756 0.334358,-0.21122 0.522693,-0.208929 0.187925,0.00228346 0.374961,0.076063 0.51676,0.220783l0.000200787 -0.000200787 3.93701e-006 3.93701e-006 0.000834646 0.00125197c0.141748,0.14524 0.21122,0.334358 0.208929,0.522689 -0.00228346,0.187925 -0.076063,0.374953 -0.220783,0.51676l0.000200787 0.000200787 -3.93701e-006 3.93701e-006 -0.000200787 -0.000200787 -0.00104724 0.0010315 -0.0738858 -0.0759646 -0.0757008 -0.0757008 3.93701e-006 -3.93701e-006 0.00125197 -0.000834646c0.10335,-0.10087 0.156039,-0.234043 0.157661,-0.367795 0.00162205,-0.133343 -0.047563,-0.267409 -0.147906,-0.370791l-0.000188976 0.000188976 -3.93701e-006 -3.93701e-006 -0.000834646 -0.00125197c-0.100866,-0.10335 -0.234043,-0.156039 -0.367795,-0.157661 -0.133799,-0.00162598 -0.268331,0.0478898 -0.371858,0.148929l-0.148331 -0.152504z"/>
 </g>
</svg>
