<?xml version="1.0" encoding="UTF-8"?>
<!DOCTYPE svg PUBLIC "-//W3C//DTD SVG 1.1//EN" "http://www.w3.org/Graphics/SVG/1.1/DTD/svg11.dtd">
<!-- Creator: CorelDRAW -->
<svg xmlns="http://www.w3.org/2000/svg" xml:space="preserve" width="2048px" height="2048px" style="shape-rendering:geometricPrecision; text-rendering:geometricPrecision; image-rendering:optimizeQuality; fill-rule:evenodd; clip-rule:evenodd"
viewBox="0 0 2048 2048"
 xmlns:xlink="http://www.w3.org/1999/xlink">
 <defs>
  <style type="text/css">
   <![CDATA[
    .fil1 {fill:none}
      .fil0 {fill:#EEEEEE;fill-rule:nonzero}
   ]]>
  </style>
 </defs>
 <g id="Layer_x0020_1">
  <metadata id="CorelCorpID_0Corel-Layer"/>
  <g id="_250287896">
   <path id="_250932576" class="fil0" d="M408.163 376.162l328.55 0c14.3055,0 26.4189,9.38859 30.515,22.3394l148.951 361.742 843.822 0c17.6728,0 32.0008,14.328 32.0008,32.0008l0 727.43c0,41.8784 -17.1095,79.9276 -44.6729,107.491 -27.5634,27.5634 -65.6126,44.6729 -107.491,44.6729l-1231.67 0c-41.8784,0 -79.9276,-17.1095 -107.491,-44.6729 -27.5634,-27.5634 -44.6729,-65.6126 -44.6729,-107.491l0 -991.348c0,-41.8784 17.1095,-79.9276 44.6729,-107.491 27.5634,-27.5634 65.6126,-44.6729 107.491,-44.6729zm307.233 64.0016l-307.233 0c-24.2126,0 -46.2473,9.92835 -62.2406,25.9217 -15.9933,15.9933 -25.9217,38.028 -25.9217,62.2406l0 991.348c0,24.2126 9.92835,46.2473 25.9217,62.2406 15.9933,15.9933 38.028,25.9217 62.2406,25.9217l1231.67 0c24.2126,0 46.2473,-9.92835 62.2406,-25.9217 15.9933,-15.9933 25.9217,-38.028 25.9217,-62.2406l0 -695.429 -832.475 0c-12.8197,0.262205 -25.0772,-7.24843 -30.2528,-19.8166l29.5902 -12.1843 -29.5004 12.1252 -149.966 -364.206z"/>
   <path id="_251047296" class="fil0" d="M777.047 472.734l862.791 0c41.8772,0 79.9276,17.1095 107.491,44.6729 27.5634,27.5634 44.6729,65.6126 44.6729,107.49l0 167.348c0,17.6728 -14.328,32.0008 -32.0008,32.0008l-865.138 0c-14.3055,0 -26.4189,-9.38977 -30.515,-22.3406l-117.362 -285.026 -0.0980316 0.0401575c-6.72875,-16.3417 1.06417,-35.0457 17.4059,-41.7744 4.17638,-1.71969 8.50631,-2.48858 12.7524,-2.41063zm862.791 64.0016l-815.69 0 92.0316 223.508 811.821 0 0 -135.347c0,-24.2114 -9.92835,-46.2461 -25.9217,-62.2394 -15.9933,-15.9933 -38.0292,-25.9217 -62.2406,-25.9217z"/>
   <path id="_452561832" class="fil0" d="M608 1312c-17.6728,0 -32.0008,14.328 -32.0008,32.0008 0,17.6728 14.328,32.0008 32.0008,32.0008l832.001 0c17.6728,0 32.0008,-14.328 32.0008,-32.0008 0,-17.6728 -14.328,-32.0008 -32.0008,-32.0008l-832.001 0z"/>
   <path id="_247574080" class="fil0" d="M608 1088c-17.6728,0 -32.0008,14.328 -32.0008,32.0008 0,17.6728 14.328,32.0008 32.0008,32.0008l832.001 0c17.6728,0 32.0008,-14.328 32.0008,-32.0008 0,-17.6728 -14.328,-32.0008 -32.0008,-32.0008l-832.001 0z"/>
  </g>
 </g>
 <rect class="fil1" width="2048" height="2048"/>
</svg>
