<svg xmlns="http://www.w3.org/2000/svg" viewBox="0 0 48 48"><defs><style>.cls-1{fill:#eeeeee;}</style></defs><title>Asset 24ldpi</title><g id="Layer_2" data-name="Layer 2"><g id="layer_1-2" data-name="layer 1"><path class="cls-1" d="M5,42H1a1,1,0,0,1-1-1V1A1,1,0,0,1,1,0H29a1,1,0,0,1,1,1V5H28V2H2V40H5Z"/><path class="cls-1" d="M15,16H7a1,1,0,0,1-.92-.62,1,1,0,0,1,.21-1.09l8-8a1,1,0,0,1,1.09-.21A1,1,0,0,1,16,7v8A1,1,0,0,1,15,16ZM9.41,14H14V9.41Z"/><path class="cls-1" d="M20,41a1,1,0,0,1-.93-1.37l4-10a1,1,0,0,1,1.64-.34l6,6a1,1,0,0,1-.34,1.64l-10,4A.94.94,0,0,1,20,41Zm4.37-9.22-2.58,6.43,6.43-2.58Z"/><path class="cls-1" d="M30,37a1,1,0,0,1-.71-.29l-6-6a1,1,0,0,1,0-1.42l17-17a1,1,0,0,1,1.42,0l6,6a1,1,0,0,1,0,1.42l-17,17A1,1,0,0,1,30,37Zm-4.59-7L30,34.59,45.59,19,41,14.41Z"/><rect class="cls-1" x="30" y="24.76" width="2" height="8.49" transform="translate(-11.43 30.41) rotate(-45)"/><rect class="cls-1" x="39" y="15.76" width="2" height="8.49" transform="translate(-2.43 34.14) rotate(-45)"/><path class="cls-1" d="M37,48H7a1,1,0,0,1-1-1V15a1,1,0,0,1,.29-.71l8-8A1,1,0,0,1,15,6H37a1,1,0,0,1,1,1v6H36V8H15.41L8,15.41V46H36V33h2V47A1,1,0,0,1,37,48Z"/><rect class="cls-1" x="11" y="39" width="9" height="2"/><rect class="cls-1" x="11" y="34" width="8" height="2"/><rect class="cls-1" x="11" y="29" width="10" height="2"/><rect class="cls-1" x="11" y="24" width="6" height="2"/><rect class="cls-1" x="19" y="24" width="6" height="2"/><rect class="cls-1" x="11" y="19" width="10" height="2"/><rect class="cls-1" x="23" y="19" width="7" height="2"/><rect class="cls-1" x="19" y="14" width="14" height="2"/></g></g></svg>